PathFileType	4	(X/Y/Z)	RBDS017static.trc
DataRate	CameraRate	NumFrames	NumMarkers	Units	OrigDataRate	OrigDataStartFrame	OrigNumFrames
150.000000	150.000000	4	48	mm	150.000000	93	150
Frame#	Time	L.Ankle			L.Ankle.Medial			L.ASIS			L.GTR			L.Heel.Bottom			L.Heel.Lateral			L.Heel.Top			L.HF			L.Iliac.Crest			L.Knee			L.Knee.Medial			L.MT1			L.MT2			L.MT5			L.PSIS			L.Shank.Bottom.Lateral			L.Shank.Bottom.Medial			L.Shank.Top.Lateral			L.Shank.Top.Medial			L.Thigh.Bottom.Lateral			L.Thigh.Bottom.Medial			L.Thigh.Top.Lateral			L.Thigh.Top.Medial			L.TT			R.Ankle			R.Ankle.Medial			R.ASIS			R.GTR			R.Heel.Bottom			R.Heel.Lateral			R.Heel.Top			R.HF			R.Iliac.Crest			R.Knee			R.Knee.Medial			R.MT1			R.MT2			R.MT5			R.PSIS			R.Shank.Bottom.Lateral			R.Shank.Bottom.Medial			R.Shank.Top.Lateral			R.Shank.Top.Medial			R.Thigh.Bottom.Lateral			R.Thigh.Bottom.Medial			R.Thigh.Top.Lateral			R.Thigh.Top.Medial			R.TT			
		X1	Y1	Z1	X2	Y2	Z2	X3	Y3	Z3	X4	Y4	Z4	X5	Y5	Z5	X6	Y6	Z6	X7	Y7	Z7	X8	Y8	Z8	X9	Y9	Z9	X10	Y10	Z10	X11	Y11	Z11	X12	Y12	Z12	X13	Y13	Z13	X14	Y14	Z14	X15	Y15	Z15	X16	Y16	Z16	X17	Y17	Z17	X18	Y18	Z18	X19	Y19	Z19	X20	Y20	Z20	X21	Y21	Z21	X22	Y22	Z22	X23	Y23	Z23	X24	Y24	Z24	X25	Y25	Z25	X26	Y26	Z26	X27	Y27	Z27	X28	Y28	Z28	X29	Y29	Z29	X30	Y30	Z30	X31	Y31	Z31	X32	Y32	Z32	X33	Y33	Z33	X34	Y34	Z34	X35	Y35	Z35	X36	Y36	Z36	X37	Y37	Z37	X38	Y38	Z38	X39	Y39	Z39	X40	Y40	Z40	X41	Y41	Z41	X42	Y42	Z42	X43	Y43	Z43	X44	Y44	Z44	X45	Y45	Z45	X46	Y46	Z46	X47	Y47	Z47	X48	Y48	Z48	

94	0.62	707.1605224609375	113.9210891723633	1037.7646484375	734.4487915039063	124.9326858520508	1120.549194335938	859.6055908203125	1078.591552734375	1088.777954101563	781.619873046875	992.2464599609375	1038.586791992188	643.1393432617188	41.07619094848633	1078.212524414063	664.8356323242188	61.02840042114258	1042.40478515625	649.9566040039063	87.29079437255859	1080.286865234375	772.4476928710938	511.4188537597656	1047.992797851563	785.5385131835938	1170.08740234375	1051.24951171875	775.4268188476563	566.0601196289063	1055.110473632813	768.0991821289063	551.7330322265625	1175.173706054688	864.9257202148438	63.7786865234375	1123.915649414063	869.2149047851563	68.27633666992188	1074.821899414063	834.921142578125	50.3418083190918	1013.881042480469	680.1137084960938	1137.414306640625	1175.057373046875	718.1815185546875	209.148193359375	1036.062133789063	675.822021484375	210.5289764404297	1071.346801757813	716.0073852539063	289.5598449707031	1030.799560546875	674.612548828125	291.3630981445313	1065.281616210938	786.4490356445313	694.8357543945313	1035.33935546875	721.0127563476563	686.2550048828125	1065.466552734375	766.1524658203125	803.4931640625	1031.969848632813	707.4255981445313	795.880615234375	1065.889282226563	826.1499633789063	482.1972961425781	1089.914306640625	710.5493774414063	109.7931213378906	1413.7490234375	732.311279296875	122.5407638549805	1330.093139648438	849.2157592773438	1074.322387695313	1373.518432617188	774.0825805664063	986.763427734375	1417.121948242188	641.3455200195313	43.50771331787109	1370.177001953125	666.858642578125	65.16722869873047	1409.658813476563	651.5834350585938	90.27275085449219	1370.4892578125	766.8829956054688	507.5428771972656	1399.6796875	786.9749755859375	1160.045532226563	1410.151489257813	772.2510375976563	563.7684936523438	1392.355224609375	777.3680419921875	548.2724609375	1272.029296875	862.9957885742188	65.418212890625	1329.116333007813	872.5557250976563	70.04061126708984	1371.640502929688	830.90966796875	51.42048263549805	1442.259155273438	678.573486328125	1135.0205078125	1277.083984375	712.5185546875	208.4515075683594	1414.099487304688	675.229736328125	212.7030487060547	1379.086547851563	714.69189453125	293.2531433105469	1420.274291992188	673.9044189453125	293.4033813476563	1385.47705078125	768.8956298828125	689.460205078125	1408.747802734375	707.0299072265625	682.54052734375	1368.719970703125	749.1912231445313	797.8212280273438	1412.866088867188	694.18505859375	791.4982299804688	1370.83642578125	825.0359497070313	479.7478637695313	1357.923217773438	
95	0.6266666666666667	707.158203125	113.9169921875	1037.758911132813	734.4448852539063	124.9389724731445	1120.553955078125	859.5848388671875	1078.588256835938	1088.760009765625	781.618408203125	992.2377319335938	1038.577880859375	643.1357421875	41.07360076904297	1078.21728515625	664.8256225585938	61.02425765991211	1042.397094726563	649.9580688476563	87.28423309326172	1080.28662109375	772.44580078125	511.4232788085938	1047.976928710938	785.498046875	1170.0927734375	1051.229858398438	775.429931640625	566.0661010742188	1055.105224609375	768.0923461914063	551.746337890625	1175.158935546875	864.9243774414063	63.77346420288086	1123.904418945313	869.2157592773438	68.28610229492188	1074.819580078125	834.9189453125	50.35176086425781	1013.885314941406	680.1015014648438	1137.40673828125	1175.041870117188	718.185302734375	209.1514434814453	1036.0595703125	675.8248901367188	210.5212707519531	1071.345703125	716.0096435546875	289.5574951171875	1030.798583984375	674.6099853515625	291.3620300292969	1065.286376953125	786.4496459960938	694.8447265625	1035.32666015625	721.0049438476563	686.2621459960938	1065.460205078125	766.1399536132813	803.4999389648438	1031.950317382813	707.4261474609375	795.8785400390625	1065.884399414063	826.1612548828125	482.1975402832031	1089.916625976563	710.5711059570313	109.923225402832	1414.108642578125	732.3096923828125	122.5381774902344	1330.099975585938	849.1908569335938	1074.330932617188	1373.51025390625	774.0626831054688	986.7686157226563	1417.114990234375	641.34765625	43.50773239135742	1370.170776367188	666.8568115234375	65.17208099365234	1409.669189453125	651.5811767578125	90.28514862060547	1370.495239257813	766.8723754882813	507.5383605957031	1399.681884765625	786.9281616210938	1160.049560546875	1410.142211914063	772.2440185546875	563.7721557617188	1392.355712890625	777.3460693359375	548.2817993164063	1272.012939453125	862.9992065429688	65.43861389160156	1329.109130859375	872.5576171875	70.03936004638672	1371.638427734375	830.9091186523438	51.42843246459961	1442.266479492188	678.554931640625	1135.029541015625	1277.054443359375	712.5137329101563	208.4573669433594	1414.087158203125	675.2243041992188	212.7075500488281	1379.088745117188	714.6856689453125	293.2671508789063	1420.272094726563	673.9021606445313	293.4071350097656	1385.470458984375	768.884033203125	689.472412109375	1408.742065429688	707.0245361328125	682.5385131835938	1368.719848632813	749.1852416992188	797.819091796875	1412.852905273438	694.162109375	791.4974365234375	1370.834594726563	825.03515625	479.7491760253906	1357.913330078125	
96	0.6333333333333334	707.1585693359375	113.9193496704102	1037.749877929688	734.436279296875	124.939079284668	1120.5537109375	859.5665283203125	1078.588500976563	1088.760864257813	781.61767578125	992.2354125976563	1038.563354492188	643.1337280273438	41.06507873535156	1078.217163085938	664.8310546875	61.02555847167969	1042.403564453125	649.9515380859375	87.28504943847656	1080.28955078125	772.4429931640625	511.4162902832031	1047.988647460938	785.4885864257813	1170.080932617188	1051.219116210938	775.4208984375	566.0647583007813	1055.103881835938	768.0706787109375	551.74267578125	1175.1552734375	864.9201049804688	63.77643966674805	1123.914184570313	869.2191162109375	68.29104614257813	1074.830688476563	834.9261474609375	50.34967422485352	1013.880676269531	680.0786743164063	1137.406005859375	1175.03515625	718.1818237304688	209.1502532958984	1036.06103515625	675.8167114257813	210.5211944580078	1071.343994140625	715.9938354492188	289.5547790527344	1030.802978515625	674.6033325195313	291.3623352050781	1065.276977539063	786.438232421875	694.8384399414063	1035.325927734375	721.00439453125	686.24755859375	1065.46142578125	766.1142578125	803.5140380859375	1031.933837890625	707.4225463867188	795.8689575195313	1065.873779296875	826.1524047851563	482.2019653320313	1089.918090820313	710.5789184570313	109.9234313964844	1414.106323242188	732.3093872070313	122.5448226928711	1330.089233398438	849.1697998046875	1074.337768554688	1373.494506835938	774.0489501953125	986.7926635742188	1417.109619140625	641.3458251953125	43.51068878173828	1370.178588867188	666.8558959960938	65.17996215820313	1409.66845703125	651.57666015625	90.28708648681641	1370.495483398438	766.8780517578125	507.5453796386719	1399.667602539063	786.89404296875	1160.053588867188	1410.12841796875	772.2362670898438	563.7733764648438	1392.340454101563	777.3697509765625	548.2821655273438	1272.014282226563	862.9995727539063	65.44273376464844	1329.109375	872.5521240234375	70.0457763671875	1371.638916015625	830.9068603515625	51.42762756347656	1442.26318359375	678.5361328125	1135.022216796875	1277.038452148438	712.5145263671875	208.46484375	1414.089233398438	675.2220458984375	212.7085571289063	1379.079467773438	714.6824340820313	293.2680053710938	1420.266479492188	673.8977661132813	293.4087524414063	1385.464477539063	768.8792724609375	689.4737548828125	1408.73583984375	707.0198364257813	682.53466796875	1368.71630859375	749.1754150390625	797.8269653320313	1412.842895507813	694.1533813476563	791.4974365234375	1370.823486328125	825.0316772460938	479.7513427734375	1357.90478515625	
97	0.64	707.1408081054688	113.9189376831055	1037.757202148438	734.4346923828125	124.9364242553711	1120.548461914063	859.5508422851563	1078.591430664063	1088.746459960938	781.6011962890625	992.2392578125	1038.56005859375	643.1383056640625	41.06811141967773	1078.220825195313	664.8297729492188	61.01526641845703	1042.405883789063	649.9430541992188	87.28160095214844	1080.289184570313	772.4346313476563	511.4102783203125	1047.975463867188	785.4517822265625	1170.083862304688	1051.203491210938	775.410888671875	566.0704345703125	1055.096801757813	768.0679321289063	551.75634765625	1175.152099609375	864.9172973632813	63.77557373046875	1123.91064453125	869.211669921875	68.28896331787109	1074.81884765625	834.9142456054688	50.35290908813477	1013.885437011719	680.0598754882813	1137.394653320313	1175.015869140625	718.1630249023438	209.1475524902344	1036.059692382813	675.8069458007813	210.5117645263672	1071.344482421875	715.9891357421875	289.5479125976563	1030.799682617188	674.5948486328125	291.3569946289063	1065.283447265625	786.4285888671875	694.836181640625	1035.318603515625	720.990966796875	686.2542114257813	1065.452514648438	766.1228637695313	803.4888916015625	1031.932373046875	707.4114990234375	795.872802734375	1065.853881835938	826.1345825195313	482.1883544921875	1089.911743164063	710.5625	109.9443283081055	1414.115478515625	732.310546875	122.5458602905273	1330.090087890625	849.1475219726563	1074.345092773438	1373.48388671875	774.0213623046875	986.79296875	1417.118041992188	641.3524780273438	43.5113410949707	1370.174926757813	666.857421875	65.18274688720703	1409.658203125	651.5884399414063	90.28377532958984	1370.489379882813	766.8716430664063	507.5452575683594	1399.662963867188	786.868408203125	1160.052734375	1410.10791015625	772.2243041992188	563.7705688476563	1392.330078125	777.3726196289063	548.26953125	1271.994262695313	863.0036010742188	65.4388427734375	1329.106323242188	872.5614624023438	70.07118988037109	1371.636840820313	830.9160766601563	51.43359756469727	1442.260864257813	678.5177612304688	1135.0244140625	1277.013061523438	712.50927734375	208.4703216552734	1414.077392578125	675.2183837890625	212.7154693603516	1379.075561523438	714.67724609375	293.263916015625	1420.258666992188	673.89501953125	293.4142150878906	1385.455932617188	768.87451171875	689.4752197265625	1408.726440429688	707.0167846679688	682.5400390625	1368.707275390625	749.1634521484375	797.8265991210938	1412.842529296875	694.146240234375	791.4944458007813	1370.818359375	825.030517578125	479.755126953125	1357.906494140625	
